# xmcd
#
# Track frame offsets:
#	150
#	14200
#	26617
#	46155
#	65312
#	77627
#	90575
#	105665
#	117222
#	131505
#	148060
#	168887
#	182460
#	199300
#	212880
#	225605
#	238027
#	251140
#	265985
#	275275
#
# Disc length: 3846 seconds
#
# Revision: 2
# Processed by: cddbd v1.4PL0 Copyright (c) Steve Scherf et al.
# Submitted via: dBpowerAMP V4.0
#
DISCID=1a0f0414
DTITLE=John Hogan - Very Best Of
DYEAR=1900
DGENRE=Country
TTITLE0=Thank God I'm A Country Boy
TTITLE1=Walk Through This World With Me
TTITLE2=Irish Harvest Day
TTITLE3=Cottage In The Country
TTITLE4=Your Cheatin' Heart
TTITLE5=China Doll
TTITLE6=My Feelings For You
TTITLE7=The Wreck Of Old No.9
TTITLE8=Turn Back The Years
TTITLE9=Red River Valley
TTITLE10=Back Home Again
TTITLE11=My Guitar
TTITLE12=I'll Buy Her Roses
TTITLE13=Brown Eyes
TTITLE14=Stepping Stone
TTITLE15=Please Dont Forget Me
TTITLE16=Still Got A Crush On You
TTITLE17=Moonlight In Mayo
TTITLE18=I Know That You Know (That I Love You)
TTITLE19=Battle Hymn Of Love
EXTD=
EXTT0=
EXTT1=
EXTT2=
EXTT3=
EXTT4=
EXTT5=
EXTT6=
EXTT7=
EXTT8=
EXTT9=
EXTT10=
EXTT11=
EXTT12=
EXTT13=
EXTT14=
EXTT15=
EXTT16=
EXTT17=
EXTT18=
EXTT19=
PLAYORDER=
